<?xml version="1.0" standalone="yes"?>
<svg xmlns="http://www.w3.org/2000/svg" width="495" height="470">
<path style="fill:#0b029c; stroke:none;" d="M0 0L0 470L495 470L495 0L0 0z"/>
<path style="fill:#ffffff; stroke:none;" d="M182 35L182 39L179 39L179 45L166 45L166 48L143 48L143 52C140.636 52.4825 140.482 52.636 140 55L134 55L134 61L130 61L130 64L108 64L108 61L102 61L102 100L95 100L95 93L82 93L82 103L86 103C86.4825 105.364 86.636 105.518 89 106L89 125L92 125L92 135C89.636 135.482 89.4824 135.636 89 138L82 138L82 141L86 141L86 145L92 145C92.4825 147.364 92.636 147.518 95 148L95 154L102 154L102 158L114 158L114 161L127 161C127.482 163.364 127.636 163.518 130 164L130 170L134 170L134 174L140 174L140 183L143 183L143 190C140.636 190.482 140.482 190.636 140 193L127 193L127 190L111 190L111 177C108.876 176.101 108.899 176.124 108 174L102 174L102 170L95 170L95 164C92.8764 163.101 92.8993 163.124 92 161L82 161L82 164L76 164L76 170L53 170L53 177C50.636 177.482 50.4825 177.636 50 180L41 180L41 193L47 193L47 196L53 196L53 209L50 209L50 219L41 219L41 225L37 225L37 235L53 235L53 244L47 247L47 257L41 257L41 267L37 267L37 280L53 280L53 299L60 299L60 305L66 305L66 312L70 312L70 318L76 318L76 312L95 312L95 318L102 318L102 334L108 334L108 353L111 353L111 357C113.124 357.899 113.101 357.876 114 360L121 360L121 363L127 363L127 376L134 376L134 373L143 373L143 366L147 366L147 376L150 376L150 382L159 382L159 389L166 389L166 395L169 395L169 402L182 402L182 408L188 408L188 411L195 411L195 418L217 418L217 427L227 427L227 430L233 430L233 434L240 434C240.482 436.364 240.636 436.518 243 437L243 443L246 443L246 411L243 411L243 402L240 402L240 395L236 395L236 382L233 382L233 376L236 376L236 366C233.876 365.101 233.899 365.124 233 363L227 363L227 360L240 360L240 363L246 363L246 382L256 382C257.44 379.169 259.169 377.44 262 376L262 382L268 382L268 389L272 389C273.146 392.601 276.302 394.663 278 398L288 398L288 402L300 402L300 398L307 398L307 392C309.364 391.518 309.518 391.364 310 389L339 389L339 392L352 392L352 379L361 379L361 382L365 382L365 389L371 389L371 382L374 382L374 376L381 376L381 379L393 379L393 382L406 382L406 379L413 379L413 382C416.194 381.987 418.271 382.403 419 379L422 379L422 382L438 382L438 366L429 366L426 360L422 360C421.518 357.636 421.364 357.482 419 357L419 353L413 353L413 347C410.876 346.101 410.899 346.124 410 344L400 344L400 270L393 270C392.518 267.636 392.364 267.482 390 267L390 254L384 251L384 238L390 235L390 231C392.364 230.518 392.518 230.364 393 228L400 228L400 215L393 215L390 209L384 209L384 202L371 202L371 190C366.307 190 353.15 187.632 352 193L349 193L349 190L313 190L313 193L307 193L307 199L297 199L297 202L291 202L291 209L278 209L278 202L275 202L275 190L281 190L281 183L291 183L291 180L339 180L339 177L352 177L352 174L365 174L365 161L371 158L371 145L374 145L374 125L384 125L384 116L387 116L387 103L371 103L371 100L355 100L355 93L349 93L349 87L345 87L345 80L336 80L336 84L326 84L326 87L320 87C319.518 84.6359 319.364 84.4825 317 84L317 80L313 80L313 71C310.876 70.1007 310.899 70.1236 310 68L307 68L307 71L275 71L275 55C272.876 54.1007 272.899 54.1236 272 52L256 52L256 55L252 55L252 61L227 61L227 64L207 64L207 71L201 68L201 48L198 48L198 39L195 39L195 35L182 35z"/>
<path style="fill:#0b029c; stroke:none;" d="M223 321L223 347L227 347L227 353L236 353L236 321L223 321z"/>
</svg>
