<?xml version="1.0" encoding="UTF-8" standalone="no"?>
<!-- Created with Inkscape (http://www.inkscape.org/) -->

<svg
   xmlns:dc="http://purl.org/dc/elements/1.1/"
   xmlns:cc="http://creativecommons.org/ns#"
   xmlns:rdf="http://www.w3.org/1999/02/22-rdf-syntax-ns#"
   xmlns:svg="http://www.w3.org/2000/svg"
   xmlns="http://www.w3.org/2000/svg"
   xmlns:sodipodi="http://sodipodi.sourceforge.net/DTD/sodipodi-0.dtd"
   xmlns:inkscape="http://www.inkscape.org/namespaces/inkscape"
   width="210mm"
   height="297mm"
   viewBox="0 0 210 297"
   version="1.1"
   id="svg8"
   inkscape:version="0.92.5 (2060ec1f9f, 2020-04-08)"
   sodipodi:docname="icon.svg">
  <defs
     id="defs2">
    <inkscape:path-effect
       effect="vonkoch"
       id="path-effect3733"
       is_visible="true"
       ref_path="M 36.405236,238.43232 H 438.49351"
       generator="M 36.405236,441.98638 H 170.43466 m 134.02943,0 h 134.02942"
       similar_only="false"
       nbgenerations="1"
       drawall="true"
       maxComplexity="1000" />
  </defs>
  <sodipodi:namedview
     id="base"
     pagecolor="#ffffff"
     bordercolor="#666666"
     borderopacity="1.0"
     inkscape:pageopacity="0.0"
     inkscape:pageshadow="2"
     inkscape:zoom="0.5"
     inkscape:cx="-349.53612"
     inkscape:cy="253.34694"
     inkscape:document-units="mm"
     inkscape:current-layer="g3730"
     showgrid="false"
     inkscape:window-width="1920"
     inkscape:window-height="1016"
     inkscape:window-x="0"
     inkscape:window-y="0"
     inkscape:window-maximized="1" />
  <metadata
     id="metadata5">
    <rdf:RDF>
      <cc:Work
         rdf:about="">
        <dc:format>image/svg+xml</dc:format>
        <dc:type
           rdf:resource="http://purl.org/dc/dcmitype/StillImage" />
        <dc:title></dc:title>
      </cc:Work>
    </rdf:RDF>
  </metadata>
  <g
     inkscape:label="Layer 1"
     inkscape:groupmode="layer"
     id="layer1">
    <g
       id="g3730"
       transform="matrix(0.26458333,0,0,0.26458333,37.32515,81.364584)">
      <rect
         id="rect3737"
         width="483.77954"
         height="483.77954"
         x="3.9999967"
         y="-13.434656"
         style="fill:#0b029c;stroke-width:1.01357234"
         ry="43.133514" />
      <g
         id="g3741"
         transform="translate(7.3433974,-8.770754)">
        <path
           inkscape:connector-curvature="0"
           id="path3715"
           d="m 182.30829,35 c -4.76064,22.03249 -34.93003,4.349222 -46.16389,20.499386 -4.80864,21.905678 -37.304245,-6.844148 -34.18082,15.667697 0.76662,9.56476 0.14247,19.228137 0.34471,28.832917 -7.206809,2.14175 -12.795047,-16.998211 -20.36887,-3.616548 3.696282,8.361948 10.776136,15.967008 7.368869,27.922818 14.947111,10.67389 -18.663811,15.00232 0.835803,20.80266 8.398952,18.46133 36.777888,8.00177 44.743908,27.52982 14.25349,5.52729 7.63176,30.1593 -9.53695,18.16535 -12.75728,1.21575 -15.24064,-4.08999 -15.50837,-15.75593 -13.663059,-5.86854 -25.065273,-24.16978 -36.974089,-4.33698 -11.598044,-3.00488 -20.300468,-0.52606 -24.064602,8.57229 -17.451121,2.05103 -1.511201,17.96658 4.864055,19.64835 -0.527607,11.20033 -2.463471,20.70323 -13.028208,22.84679 -5.722619,5.29322 -3.918654,18.69617 9.146288,12.65396 9.512761,6.25107 -4.445501,16.44533 -5.868712,23.66164 -8.42485,6.66098 -10.839828,29.52816 9.390877,21.90578 -5.066798,19.50212 12.623111,24.31181 20.432425,38 11.807639,-15.19611 33.847536,-1.17858 29.019836,14.94638 9.87638,7.51917 2.68556,30.60238 23.98544,31.29609 -4.79295,16.90652 15.49177,12.14352 18.16662,1.93675 4.41073,5.15046 2.64444,19.87584 14.39568,15.82078 -0.26994,8.53516 10.41481,9.72769 12.00975,19.85623 14.26521,-2.15577 19.43063,16.4545 32.00078,16.14377 10.06422,-1.01691 14.57694,-0.5453 16.34404,8.28957 12.7908,-2.28179 29.85199,29.16426 26.64543,4.12436 -0.68405,-8.86811 2.36793,-18.74143 -4.01557,-25.75872 -5.10359,-12.06037 -10.3472,-24.56902 -5.98443,-37.80834 -22.83488,-10.55333 19.80577,-9.08719 9.79598,7.39995 -0.80532,18.47829 17.36757,-4.57167 21.53637,9.56001 7.64161,20.24451 36.2355,22.21572 45.75478,5.17728 14.88852,-5.43533 41.47916,14.52692 40.52469,-9.69003 10.58089,-5.06035 13.88006,21.14623 18.53232,2.70592 8.07423,-13.99484 27.20076,7.31207 39.9416,-2.38966 8.41877,5.1654 39.67237,2.00282 21.61476,-13.24985 -14.43105,-5.92675 -21.24054,-21.44662 -33.75199,-25.70989 0.0633,-23.44676 0.0581,-47.11114 0.0515,-70.6506 -14.37426,1.40571 -9.19681,-18.34377 -16.39105,-26.13079 -0.6419,-13.77347 27.71091,-16.88844 12.61257,-29.49253 -11.10787,-1.31446 -10.88616,-15.93538 -24.08901,-12.87405 1.46774,-12.56084 -7.96027,-15.32797 -19.44708,-9.44642 -5.86176,-3.33328 -14.38293,-1.6906 -21.99581,-2.05621 -7.60767,0.91615 -16.70777,-2.70868 -21.9493,3.81239 -4.3991,7.8032 -17.29018,5.58858 -20.34965,15.46796 -15.01757,3.66281 -17.35444,-19.9512 -7.25527,-23.07738 6.9058,-8.84393 23.28751,-5.60969 35.03803,-6.20297 7.60885,0 15.21771,0 22.82657,0 8.44313,-7.66405 30.29974,-0.22781 27.75438,-19.28196 12.72305,-10.88463 -1.49804,-36.85591 17.88446,-38.19405 2.46102,-9.34049 6.30381,-23.606826 -9.26347,-19.68764 -17.23565,-0.53124 -25.60338,-9.425708 -33.33622,-23.374055 -13.60673,9.742579 -30.45409,8.578889 -30.9615,-10.615186 -10.13394,1.094648 -41.98547,10.499878 -35.65688,-10.459709 -8.90312,-17.775449 -21.77,2.539641 -32.57518,2.6126 -10.24562,-1.873107 -17.07255,2.744804 -26.1164,3.045604 C 208.93716,60.623812 201.47612,78.702333 201.32925,60.8135 200.9943,48.631816 199.32638,30.523594 182.30829,35 Z"
           style="fill:#ffffff;stroke:none" />
        <path
           sodipodi:nodetypes="cccc"
           inkscape:connector-curvature="0"
           id="path3717"
           d="m 223,321 c 0.35033,17.01956 7.37332,24.74312 12.11612,24.84054 3.05992,-2.44655 6.15721,-21.84952 2.90419,-24.84054 C 225.3934,313.92893 223,321 223,321 Z"
           style="fill:#0b029c;stroke:none" />
      </g>
    </g>
  </g>
</svg>
